<svg xmlns="http://www.w3.org/2000/svg" viewBox="0 0 800 600"><defs><linearGradient id="accent-gradient" x1="0%" y1="0%" x2="100%" y2="100%"><stop offset="0%" stop-color="#ff6b6b"/><stop offset="100%" stop-color="#ff8e8e"/></linearGradient><linearGradient id="paper-gradient" x1="0%" y1="0%" x2="100%" y2="100%"><stop offset="0%" stop-color="#ffffff"/><stop offset="100%" stop-color="#f8f9fa"/></linearGradient></defs><rect x="200" y="100" width="300" height="400" rx="10" ry="10" fill="url(#paper-gradient)" stroke="#dee2e6" stroke-width="2"/><rect x="230" y="140" width="240" height="10" rx="2" ry="2" fill="#adb5bd" opacity="0.7"/><rect x="230" y="160" width="180" height="8" rx="2" ry="2" fill="#adb5bd" opacity="0.5"/><rect x="230" y="180" width="240" height="2" rx="1" ry="1" fill="#dee2e6"/><rect x="230" y="200" width="100" height="12" rx="2" ry="2" fill="#495057"/><rect x="230" y="220" width="240" height="8" rx="2" ry="2" fill="#adb5bd" opacity="0.7"/><rect x="230" y="235" width="200" height="8" rx="2" ry="2" fill="#adb5bd" opacity="0.7"/><rect x="230" y="250" width="240" height="2" rx="1" ry="1" fill="#dee2e6"/><rect x="230" y="270" width="100" height="12" rx="2" ry="2" fill="#495057"/><rect x="230" y="290" width="240" height="8" rx="2" ry="2" fill="#adb5bd" opacity="0.7"/><rect x="230" y="305" width="200" height="8" rx="2" ry="2" fill="#adb5bd" opacity="0.7"/><rect x="230" y="320" width="240" height="2" rx="1" ry="1" fill="#dee2e6"/><rect x="230" y="340" width="100" height="12" rx="2" ry="2" fill="#495057"/><rect x="230" y="360" width="240" height="8" rx="2" ry="2" fill="#adb5bd" opacity="0.7"/><rect x="230" y="375" width="200" height="8" rx="2" ry="2" fill="#adb5bd" opacity="0.7"/><rect x="230" y="390" width="240" height="2" rx="1" ry="1" fill="#dee2e6"/><circle cx="550" cy="350" r="40" fill="none" stroke="#495057" stroke-width="8" opacity="0.8"/><line x1="580" y1="380" x2="620" y2="420" stroke="#495057" stroke-width="8" stroke-linecap="round" opacity="0.8"/><circle cx="600" cy="200" r="40" fill="none" stroke="#495057" stroke-width="4"/><path d="M600,160 A40,40 0 0 1 635,215" stroke="url(#accent-gradient)" stroke-width="4" fill="none"/><text x="600" y="205" font-family="Arial, sans-serif" font-size="20" fill="#495057" text-anchor="middle" font-weight="bold">75%</text><circle cx="350" cy="370" r="30" fill="none" stroke="url(#accent-gradient)" stroke-width="3" stroke-dasharray="5,5"/></svg>
