<svg width="800" height="600" viewBox="0 0 800 600" fill="none" xmlns="http://www.w3.org/2000/svg">
  <!-- Background elements -->
  <circle cx="400" cy="300" r="250" fill="#1a3a5f" fill-opacity="0.1"/>
  <circle cx="400" cy="300" r="200" fill="#12232E" fill-opacity="0.05"/>
  
  <!-- Document -->
  <rect x="250" y="100" width="300" height="400" rx="8" fill="white" stroke="#E1E8F0" stroke-width="2"/>
  
  <!-- Document lines -->
  <rect x="280" y="150" width="240" height="10" rx="2" fill="#E1E8F0"/>
  <rect x="280" y="180" width="180" height="10" rx="2" fill="#E1E8F0"/>
  <rect x="280" y="210" width="240" height="10" rx="2" fill="#E1E8F0"/>
  <rect x="280" y="240" width="200" height="10" rx="2" fill="#E1E8F0"/>
  <rect x="280" y="270" width="240" height="10" rx="2" fill="#E1E8F0"/>
  <rect x="280" y="300" width="160" height="10" rx="2" fill="#E1E8F0"/>
  <rect x="280" y="330" width="240" height="10" rx="2" fill="#E1E8F0"/>
  <rect x="280" y="360" width="200" height="10" rx="2" fill="#E1E8F0"/>
  <rect x="280" y="390" width="180" height="10" rx="2" fill="#E1E8F0"/>
  <rect x="280" y="420" width="240" height="10" rx="2" fill="#E1E8F0"/>
  
  <!-- Magnifying glass -->
  <circle cx="500" cy="350" r="80" fill="#FF6B6B" fill-opacity="0.1" stroke="#FF6B6B" stroke-width="4"/>
  <line x1="560" y1="410" x2="600" y2="450" stroke="#FF6B6B" stroke-width="8" stroke-linecap="round"/>
  
  <!-- Checkmarks -->
  <circle cx="320" y="180" r="15" fill="#7D94B5" fill-opacity="0.2"/>
  <path d="M313 180L318 185L328 175" stroke="#7D94B5" stroke-width="3" stroke-linecap="round" stroke-linejoin="round"/>
  
  <circle cx="320" y="240" r="15" fill="#7D94B5" fill-opacity="0.2"/>
  <path d="M313 240L318 245L328 235" stroke="#7D94B5" stroke-width="3" stroke-linecap="round" stroke-linejoin="round"/>
  
  <circle cx="320" y="300" r="15" fill="#7D94B5" fill-opacity="0.2"/>
  <path d="M313 300L318 305L328 295" stroke="#7D94B5" stroke-width="3" stroke-linecap="round" stroke-linejoin="round"/>
  
  <circle cx="320" y="360" r="15" fill="#FF6B6B" fill-opacity="0.2"/>
  <path d="M313 360L318 365L328 355" stroke="#FF6B6B" stroke-width="3" stroke-linecap="round" stroke-linejoin="round"/>
  
  <circle cx="320" y="420" r="15" fill="#FF6B6B" fill-opacity="0.2"/>
  <path d="M313 420L318 425L328 415" stroke="#FF6B6B" stroke-width="3" stroke-linecap="round" stroke-linejoin="round"/>
  
  <!-- Percentage indicator -->
  <circle cx="600" cy="150" r="50" fill="#FF6B6B" fill-opacity="0.1" stroke="#FF6B6B" stroke-width="4" stroke-dasharray="251.2 251.2" stroke-dashoffset="62.8"/>
  <text x="600" y="160" font-family="Arial" font-size="24" font-weight="bold" fill="#FF6B6B" text-anchor="middle">75%</text>
  
  <!-- AI elements -->
  <path d="M150 250C150 250 180 220 220 220C260 220 280 250 280 250" stroke="#7D94B5" stroke-width="3"/>
  <path d="M150 280C150 280 180 250 220 250C260 250 280 280 280 280" stroke="#7D94B5" stroke-width="3"/>
  <path d="M150 310C150 310 180 280 220 280C260 280 280 310 280 310" stroke="#7D94B5" stroke-width="3"/>
  
  <circle cx="150" cy="250" r="5" fill="#7D94B5"/>
  <circle cx="150" cy="280" r="5" fill="#7D94B5"/>
  <circle cx="150" cy="310" r="5" fill="#7D94B5"/>
  
  <circle cx="280" cy="250" r="5" fill="#7D94B5"/>
  <circle cx="280" cy="280" r="5" fill="#7D94B5"/>
  <circle cx="280" cy="310" r="5" fill="#7D94B5"/>
</svg> 